<!DOCTYPE svg PUBLIC "-//W3C//DTD SVG 1.1//EN" "http://www.w3.org/Graphics/SVG/1.1/DTD/svg11.dtd">
<!-- Uploaded to: SVG Repo, www.svgrepo.com, Transformed by: SVG Repo Mixer Tools -->
<svg height="800px" width="800px" version="1.1" id="Layer_1" xmlns="http://www.w3.org/2000/svg" xmlns:xlink="http://www.w3.org/1999/xlink" viewBox="0 0 512 512" xml:space="preserve" fill="#36B446" stroke="#36B446">
<g id="SVGRepo_bgCarrier" stroke-width="0"/>
<g id="SVGRepo_tracerCarrier" stroke-linecap="round" stroke-linejoin="round"/>
<g id="SVGRepo_iconCarrier"> <path style="fill:#ffffff;" d="M256.203,135.101c-58.29,0-94.566-83.864-98.511-93.423c-2.295-5.575-1.402-11.94,2.332-16.66 C172.61,9.115,192.518,0,214.634,0s42.024,9.115,54.609,25.017c8.374,10.576,20.633,16.433,32.449,15.826 c6.902-0.39,16.596-3.183,23.556-14.322c4.579-7.34,14.03-9.927,21.705-5.976c7.686,3.951,11.063,13.142,7.767,21.132 C350.774,51.237,314.493,135.101,256.203,135.101z"/> <path style="fill:#ffffff;" d="M346.953,20.547c-7.675-3.951-17.126-1.363-21.705,5.976c-6.96,11.14-16.654,13.932-23.556,14.322 c-11.816,0.606-23.824-5.25-32.197-15.826c-3.802-4.807-8.651-8.904-13.085-12.406v122.463c0,0-0.055,0.027,0.045,0.027 c58.29,0,94.445-83.864,98.391-93.423C358.142,33.689,354.639,24.498,346.953,20.547z"/> <path style="fill:#ffffff;" d="M256.203,512c-70.885,0-124.736-14.788-160.054-43.962c-31.14-25.732-46.928-61.262-46.928-105.613 c0-116.893,114.133-260.579,206.983-260.579c92.585,0,206.387,143.134,206.387,259.572c0,44.59-15.751,80.346-46.82,106.262 C380.517,497.094,326.834,512,256.203,512z"/> <path style="fill:#ffffff;" d="M256.455,101.846c-0.099,0-0.045,0.013-0.045,0.013v410.132c0,0-0.057,0.008,0.045,0.008 c70.631,0,124.188-14.906,159.441-44.319c31.069-25.916,46.883-61.673,46.883-106.262 C462.779,244.98,349.04,101.846,256.455,101.846z"/> <path style="fill:#ffffff9f8f5;" d="M264.181,302.614c-17.445-9.223-35.486-18.75-35.486-29.64c0-15.285,12.433-27.713,27.713-27.713 s27.713,12.428,27.713,27.713c0,9.18,7.443,16.628,16.628,16.628c9.185,0,16.628-7.448,16.628-16.628 c0-27.843-18.845-51.339-44.341-58.603v-7.908c0-9.18-7.443-16.628-16.628-16.628c-9.185,0-16.628,7.448-16.628,16.628v7.908 c-25.496,7.264-44.341,30.76-44.341,58.603c0,30.918,29.499,46.517,53.196,59.042c17.445,9.223,35.486,18.75,35.486,29.64 c0,15.285-12.433,27.713-27.713,27.713s-27.713-12.428-27.713-27.713c0-9.18-7.443-16.628-16.628-16.628 c-9.185,0-16.628,7.448-16.628,16.628c0,27.843,18.845,51.339,44.341,58.603v7.908c0,9.18,7.443,16.628,16.628,16.628 c9.185,0,16.628-7.448,16.628-16.628v-7.908c25.496-7.264,44.341-30.76,44.341-58.603 C317.378,330.738,287.878,315.139,264.181,302.614z"/> <g> <path style="fill:#ffffff;" d="M256.661,389.369c-0.173,0-0.252-0.049-0.252-0.051v55.426c0,0.006,0.079,0.051,0.252,0.051 c9.185,0,16.376-7.448,16.376-16.628v-7.908c25.496-7.264,44.341-30.76,44.341-58.603c0-30.918-29.247-46.517-52.944-59.042 c-2.777-1.467-5.808-2.95-8.025-4.439v37.721c14.411,8.027,28.09,16.387,28.09,25.759 C284.5,376.942,271.941,389.369,256.661,389.369z"/> <path style="fill:#ffffff;" d="M273.037,214.371v-7.908c0-9.18-7.191-16.628-16.376-16.628c-0.173,0-0.252,0.047-0.252,0.051 v55.426c0-0.002,0.079-0.051,0.252-0.051c15.28,0,27.587,12.428,27.587,27.713c0,9.18,7.379,16.628,16.565,16.628 s16.597-7.448,16.597-16.628C317.41,245.131,298.534,221.635,273.037,214.371z"/> </g> </g>
</svg>